<svg viewBox="0 0 300 300" xmlns="http://www.w3.org/2000/svg" height="2048" width="2048"><svg xmlns="http://www.w3.org/2000/svg"><svg width="300" height="300"><defs style="transform: scale(1) translate(0px, 0px);"><clipPath id="clip-path-dot-color"><rect x="19" y="100" width="9" height="9" transform="rotate(0,23.5,104.5)"/><rect x="19" y="109" width="9" height="9" transform="rotate(0,23.5,113.5)"/><rect x="19" y="118" width="9" height="9" transform="rotate(0,23.5,122.5)"/><rect x="19" y="127" width="9" height="9" transform="rotate(0,23.5,131.5)"/><rect x="19" y="154" width="9" height="9" transform="rotate(0,23.5,158.5)"/><rect x="19" y="172" width="9" height="9" transform="rotate(0,23.5,176.5)"/><rect x="19" y="190" width="9" height="9" transform="rotate(0,23.5,194.5)"/><rect x="19" y="199" width="9" height="9" transform="rotate(0,23.5,203.5)"/><rect x="28" y="91" width="9" height="9" transform="rotate(0,32.5,95.5)"/><rect x="28" y="109" width="9" height="9" transform="rotate(0,32.5,113.5)"/><rect x="28" y="118" width="9" height="9" transform="rotate(0,32.5,122.5)"/><rect x="28" y="154" width="9" height="9" transform="rotate(0,32.5,158.5)"/><rect x="28" y="163" width="9" height="9" transform="rotate(0,32.5,167.5)"/><rect x="28" y="190" width="9" height="9" transform="rotate(0,32.5,194.5)"/><rect x="37" y="100" width="9" height="9" transform="rotate(0,41.5,104.5)"/><rect x="37" y="118" width="9" height="9" transform="rotate(0,41.5,122.5)"/><rect x="37" y="136" width="9" height="9" transform="rotate(0,41.5,140.5)"/><rect x="37" y="145" width="9" height="9" transform="rotate(0,41.5,149.5)"/><rect x="37" y="154" width="9" height="9" transform="rotate(0,41.5,158.5)"/><rect x="37" y="181" width="9" height="9" transform="rotate(0,41.5,185.5)"/><rect x="37" y="190" width="9" height="9" transform="rotate(0,41.5,194.5)"/><rect x="46" y="91" width="9" height="9" transform="rotate(0,50.5,95.5)"/><rect x="46" y="100" width="9" height="9" transform="rotate(0,50.5,104.5)"/><rect x="46" y="109" width="9" height="9" transform="rotate(0,50.5,113.5)"/><rect x="46" y="127" width="9" height="9" transform="rotate(0,50.5,131.5)"/><rect x="46" y="163" width="9" height="9" transform="rotate(0,50.5,167.5)"/><rect x="46" y="172" width="9" height="9" transform="rotate(0,50.5,176.5)"/><rect x="46" y="181" width="9" height="9" transform="rotate(0,50.5,185.5)"/><rect x="55" y="91" width="9" height="9" transform="rotate(0,59.5,95.5)"/><rect x="55" y="100" width="9" height="9" transform="rotate(0,59.5,104.5)"/><rect x="55" y="118" width="9" height="9" transform="rotate(0,59.5,122.5)"/><rect x="55" y="127" width="9" height="9" transform="rotate(0,59.5,131.5)"/><rect x="55" y="145" width="9" height="9" transform="rotate(0,59.5,149.5)"/><rect x="55" y="181" width="9" height="9" transform="rotate(0,59.5,185.5)"/><rect x="55" y="190" width="9" height="9" transform="rotate(0,59.5,194.5)"/><rect x="64" y="100" width="9" height="9" transform="rotate(0,68.5,104.5)"/><rect x="64" y="109" width="9" height="9" transform="rotate(0,68.5,113.5)"/><rect x="64" y="127" width="9" height="9" transform="rotate(0,68.5,131.5)"/><rect x="64" y="136" width="9" height="9" transform="rotate(0,68.5,140.5)"/><rect x="64" y="199" width="9" height="9" transform="rotate(0,68.5,203.5)"/><rect x="73" y="91" width="9" height="9" transform="rotate(0,77.5,95.5)"/><rect x="73" y="109" width="9" height="9" transform="rotate(0,77.5,113.5)"/><rect x="73" y="127" width="9" height="9" transform="rotate(0,77.5,131.5)"/><rect x="73" y="145" width="9" height="9" transform="rotate(0,77.5,149.5)"/><rect x="73" y="163" width="9" height="9" transform="rotate(0,77.5,167.5)"/><rect x="73" y="181" width="9" height="9" transform="rotate(0,77.5,185.5)"/><rect x="73" y="199" width="9" height="9" transform="rotate(0,77.5,203.5)"/><rect x="82" y="91" width="9" height="9" transform="rotate(0,86.5,95.5)"/><rect x="82" y="100" width="9" height="9" transform="rotate(0,86.5,104.5)"/><rect x="82" y="145" width="9" height="9" transform="rotate(0,86.5,149.5)"/><rect x="82" y="172" width="9" height="9" transform="rotate(0,86.5,176.5)"/><rect x="82" y="181" width="9" height="9" transform="rotate(0,86.5,185.5)"/><rect x="82" y="190" width="9" height="9" transform="rotate(0,86.5,194.5)"/><rect x="91" y="28" width="9" height="9" transform="rotate(0,95.5,32.5)"/><rect x="91" y="46" width="9" height="9" transform="rotate(0,95.5,50.5)"/><rect x="91" y="55" width="9" height="9" transform="rotate(0,95.5,59.5)"/><rect x="91" y="64" width="9" height="9" transform="rotate(0,95.5,68.5)"/><rect x="91" y="73" width="9" height="9" transform="rotate(0,95.5,77.5)"/><rect x="91" y="91" width="9" height="9" transform="rotate(0,95.5,95.5)"/><rect x="91" y="109" width="9" height="9" transform="rotate(0,95.5,113.5)"/><rect x="91" y="127" width="9" height="9" transform="rotate(0,95.5,131.5)"/><rect x="91" y="145" width="9" height="9" transform="rotate(0,95.5,149.5)"/><rect x="91" y="163" width="9" height="9" transform="rotate(0,95.5,167.5)"/><rect x="91" y="190" width="9" height="9" transform="rotate(0,95.5,194.5)"/><rect x="91" y="208" width="9" height="9" transform="rotate(0,95.5,212.5)"/><rect x="91" y="217" width="9" height="9" transform="rotate(0,95.5,221.5)"/><rect x="91" y="235" width="9" height="9" transform="rotate(0,95.5,239.5)"/><rect x="91" y="244" width="9" height="9" transform="rotate(0,95.5,248.5)"/><rect x="91" y="262" width="9" height="9" transform="rotate(0,95.5,266.5)"/><rect x="100" y="55" width="9" height="9" transform="rotate(0,104.5,59.5)"/><rect x="100" y="64" width="9" height="9" transform="rotate(0,104.5,68.5)"/><rect x="100" y="109" width="9" height="9" transform="rotate(0,104.5,113.5)"/><rect x="100" y="136" width="9" height="9" transform="rotate(0,104.5,140.5)"/><rect x="100" y="154" width="9" height="9" transform="rotate(0,104.5,158.5)"/><rect x="100" y="172" width="9" height="9" transform="rotate(0,104.5,176.5)"/><rect x="100" y="181" width="9" height="9" transform="rotate(0,104.5,185.5)"/><rect x="100" y="217" width="9" height="9" transform="rotate(0,104.5,221.5)"/><rect x="100" y="226" width="9" height="9" transform="rotate(0,104.5,230.5)"/><rect x="100" y="235" width="9" height="9" transform="rotate(0,104.5,239.5)"/><rect x="100" y="244" width="9" height="9" transform="rotate(0,104.5,248.5)"/><rect x="100" y="262" width="9" height="9" transform="rotate(0,104.5,266.5)"/><rect x="109" y="19" width="9" height="9" transform="rotate(0,113.5,23.5)"/><rect x="109" y="28" width="9" height="9" transform="rotate(0,113.5,32.5)"/><rect x="109" y="37" width="9" height="9" transform="rotate(0,113.5,41.5)"/><rect x="109" y="46" width="9" height="9" transform="rotate(0,113.5,50.5)"/><rect x="109" y="55" width="9" height="9" transform="rotate(0,113.5,59.5)"/><rect x="109" y="64" width="9" height="9" transform="rotate(0,113.5,68.5)"/><rect x="109" y="73" width="9" height="9" transform="rotate(0,113.5,77.5)"/><rect x="109" y="118" width="9" height="9" transform="rotate(0,113.5,122.5)"/><rect x="109" y="127" width="9" height="9" transform="rotate(0,113.5,131.5)"/><rect x="109" y="145" width="9" height="9" transform="rotate(0,113.5,149.5)"/><rect x="109" y="172" width="9" height="9" transform="rotate(0,113.5,176.5)"/><rect x="109" y="190" width="9" height="9" transform="rotate(0,113.5,194.5)"/><rect x="109" y="199" width="9" height="9" transform="rotate(0,113.5,203.5)"/><rect x="109" y="208" width="9" height="9" transform="rotate(0,113.5,212.5)"/><rect x="109" y="217" width="9" height="9" transform="rotate(0,113.5,221.5)"/><rect x="109" y="244" width="9" height="9" transform="rotate(0,113.5,248.5)"/><rect x="109" y="253" width="9" height="9" transform="rotate(0,113.5,257.5)"/><rect x="118" y="19" width="9" height="9" transform="rotate(0,122.5,23.5)"/><rect x="118" y="46" width="9" height="9" transform="rotate(0,122.5,50.5)"/><rect x="118" y="64" width="9" height="9" transform="rotate(0,122.5,68.5)"/><rect x="118" y="91" width="9" height="9" transform="rotate(0,122.5,95.5)"/><rect x="118" y="100" width="9" height="9" transform="rotate(0,122.5,104.5)"/><rect x="118" y="118" width="9" height="9" transform="rotate(0,122.5,122.5)"/><rect x="118" y="136" width="9" height="9" transform="rotate(0,122.5,140.5)"/><rect x="118" y="145" width="9" height="9" transform="rotate(0,122.5,149.5)"/><rect x="118" y="163" width="9" height="9" transform="rotate(0,122.5,167.5)"/><rect x="118" y="172" width="9" height="9" transform="rotate(0,122.5,176.5)"/><rect x="118" y="190" width="9" height="9" transform="rotate(0,122.5,194.5)"/><rect x="118" y="199" width="9" height="9" transform="rotate(0,122.5,203.5)"/><rect x="118" y="226" width="9" height="9" transform="rotate(0,122.5,230.5)"/><rect x="118" y="235" width="9" height="9" transform="rotate(0,122.5,239.5)"/><rect x="118" y="271" width="9" height="9" transform="rotate(0,122.5,275.5)"/><rect x="127" y="28" width="9" height="9" transform="rotate(0,131.5,32.5)"/><rect x="127" y="37" width="9" height="9" transform="rotate(0,131.5,41.5)"/><rect x="127" y="73" width="9" height="9" transform="rotate(0,131.5,77.5)"/><rect x="127" y="82" width="9" height="9" transform="rotate(0,131.5,86.5)"/><rect x="127" y="109" width="9" height="9" transform="rotate(0,131.5,113.5)"/><rect x="127" y="118" width="9" height="9" transform="rotate(0,131.5,122.5)"/><rect x="127" y="127" width="9" height="9" transform="rotate(0,131.5,131.5)"/><rect x="127" y="145" width="9" height="9" transform="rotate(0,131.5,149.5)"/><rect x="127" y="163" width="9" height="9" transform="rotate(0,131.5,167.5)"/><rect x="127" y="199" width="9" height="9" transform="rotate(0,131.5,203.5)"/><rect x="127" y="208" width="9" height="9" transform="rotate(0,131.5,212.5)"/><rect x="127" y="217" width="9" height="9" transform="rotate(0,131.5,221.5)"/><rect x="127" y="244" width="9" height="9" transform="rotate(0,131.5,248.5)"/><rect x="127" y="262" width="9" height="9" transform="rotate(0,131.5,266.5)"/><rect x="136" y="19" width="9" height="9" transform="rotate(0,140.5,23.5)"/><rect x="136" y="28" width="9" height="9" transform="rotate(0,140.5,32.5)"/><rect x="136" y="37" width="9" height="9" transform="rotate(0,140.5,41.5)"/><rect x="136" y="46" width="9" height="9" transform="rotate(0,140.5,50.5)"/><rect x="136" y="64" width="9" height="9" transform="rotate(0,140.5,68.5)"/><rect x="136" y="118" width="9" height="9" transform="rotate(0,140.5,122.5)"/><rect x="136" y="145" width="9" height="9" transform="rotate(0,140.5,149.5)"/><rect x="136" y="154" width="9" height="9" transform="rotate(0,140.5,158.5)"/><rect x="136" y="217" width="9" height="9" transform="rotate(0,140.5,221.5)"/><rect x="136" y="235" width="9" height="9" transform="rotate(0,140.5,239.5)"/><rect x="136" y="253" width="9" height="9" transform="rotate(0,140.5,257.5)"/><rect x="136" y="271" width="9" height="9" transform="rotate(0,140.5,275.5)"/><rect x="145" y="19" width="9" height="9" transform="rotate(0,149.5,23.5)"/><rect x="145" y="64" width="9" height="9" transform="rotate(0,149.5,68.5)"/><rect x="145" y="73" width="9" height="9" transform="rotate(0,149.5,77.5)"/><rect x="145" y="82" width="9" height="9" transform="rotate(0,149.5,86.5)"/><rect x="145" y="91" width="9" height="9" transform="rotate(0,149.5,95.5)"/><rect x="145" y="109" width="9" height="9" transform="rotate(0,149.5,113.5)"/><rect x="145" y="118" width="9" height="9" transform="rotate(0,149.5,122.5)"/><rect x="145" y="145" width="9" height="9" transform="rotate(0,149.5,149.5)"/><rect x="145" y="154" width="9" height="9" transform="rotate(0,149.5,158.5)"/><rect x="145" y="163" width="9" height="9" transform="rotate(0,149.5,167.5)"/><rect x="145" y="181" width="9" height="9" transform="rotate(0,149.5,185.5)"/><rect x="145" y="190" width="9" height="9" transform="rotate(0,149.5,194.5)"/><rect x="145" y="199" width="9" height="9" transform="rotate(0,149.5,203.5)"/><rect x="145" y="208" width="9" height="9" transform="rotate(0,149.5,212.5)"/><rect x="145" y="217" width="9" height="9" transform="rotate(0,149.5,221.5)"/><rect x="145" y="226" width="9" height="9" transform="rotate(0,149.5,230.5)"/><rect x="145" y="244" width="9" height="9" transform="rotate(0,149.5,248.5)"/><rect x="145" y="271" width="9" height="9" transform="rotate(0,149.5,275.5)"/><rect x="154" y="19" width="9" height="9" transform="rotate(0,158.5,23.5)"/><rect x="154" y="37" width="9" height="9" transform="rotate(0,158.5,41.5)"/><rect x="154" y="82" width="9" height="9" transform="rotate(0,158.5,86.5)"/><rect x="154" y="91" width="9" height="9" transform="rotate(0,158.5,95.5)"/><rect x="154" y="109" width="9" height="9" transform="rotate(0,158.5,113.5)"/><rect x="154" y="118" width="9" height="9" transform="rotate(0,158.5,122.5)"/><rect x="154" y="136" width="9" height="9" transform="rotate(0,158.5,140.5)"/><rect x="154" y="145" width="9" height="9" transform="rotate(0,158.5,149.5)"/><rect x="154" y="190" width="9" height="9" transform="rotate(0,158.5,194.5)"/><rect x="154" y="208" width="9" height="9" transform="rotate(0,158.5,212.5)"/><rect x="154" y="217" width="9" height="9" transform="rotate(0,158.5,221.5)"/><rect x="154" y="235" width="9" height="9" transform="rotate(0,158.5,239.5)"/><rect x="154" y="244" width="9" height="9" transform="rotate(0,158.5,248.5)"/><rect x="154" y="253" width="9" height="9" transform="rotate(0,158.5,257.5)"/><rect x="154" y="262" width="9" height="9" transform="rotate(0,158.5,266.5)"/><rect x="163" y="19" width="9" height="9" transform="rotate(0,167.5,23.5)"/><rect x="163" y="37" width="9" height="9" transform="rotate(0,167.5,41.5)"/><rect x="163" y="55" width="9" height="9" transform="rotate(0,167.5,59.5)"/><rect x="163" y="73" width="9" height="9" transform="rotate(0,167.5,77.5)"/><rect x="163" y="82" width="9" height="9" transform="rotate(0,167.5,86.5)"/><rect x="163" y="91" width="9" height="9" transform="rotate(0,167.5,95.5)"/><rect x="163" y="100" width="9" height="9" transform="rotate(0,167.5,104.5)"/><rect x="163" y="118" width="9" height="9" transform="rotate(0,167.5,122.5)"/><rect x="163" y="136" width="9" height="9" transform="rotate(0,167.5,140.5)"/><rect x="163" y="145" width="9" height="9" transform="rotate(0,167.5,149.5)"/><rect x="163" y="154" width="9" height="9" transform="rotate(0,167.5,158.5)"/><rect x="163" y="172" width="9" height="9" transform="rotate(0,167.5,176.5)"/><rect x="163" y="181" width="9" height="9" transform="rotate(0,167.5,185.5)"/><rect x="163" y="199" width="9" height="9" transform="rotate(0,167.5,203.5)"/><rect x="163" y="226" width="9" height="9" transform="rotate(0,167.5,230.5)"/><rect x="163" y="244" width="9" height="9" transform="rotate(0,167.5,248.5)"/><rect x="163" y="271" width="9" height="9" transform="rotate(0,167.5,275.5)"/><rect x="172" y="19" width="9" height="9" transform="rotate(0,176.5,23.5)"/><rect x="172" y="46" width="9" height="9" transform="rotate(0,176.5,50.5)"/><rect x="172" y="82" width="9" height="9" transform="rotate(0,176.5,86.5)"/><rect x="172" y="109" width="9" height="9" transform="rotate(0,176.5,113.5)"/><rect x="172" y="136" width="9" height="9" transform="rotate(0,176.5,140.5)"/><rect x="172" y="172" width="9" height="9" transform="rotate(0,176.5,176.5)"/><rect x="172" y="235" width="9" height="9" transform="rotate(0,176.5,239.5)"/><rect x="172" y="244" width="9" height="9" transform="rotate(0,176.5,248.5)"/><rect x="172" y="253" width="9" height="9" transform="rotate(0,176.5,257.5)"/><rect x="181" y="19" width="9" height="9" transform="rotate(0,185.5,23.5)"/><rect x="181" y="28" width="9" height="9" transform="rotate(0,185.5,32.5)"/><rect x="181" y="73" width="9" height="9" transform="rotate(0,185.5,77.5)"/><rect x="181" y="82" width="9" height="9" transform="rotate(0,185.5,86.5)"/><rect x="181" y="109" width="9" height="9" transform="rotate(0,185.5,113.5)"/><rect x="181" y="118" width="9" height="9" transform="rotate(0,185.5,122.5)"/><rect x="181" y="163" width="9" height="9" transform="rotate(0,185.5,167.5)"/><rect x="181" y="172" width="9" height="9" transform="rotate(0,185.5,176.5)"/><rect x="181" y="181" width="9" height="9" transform="rotate(0,185.5,185.5)"/><rect x="181" y="190" width="9" height="9" transform="rotate(0,185.5,194.5)"/><rect x="181" y="235" width="9" height="9" transform="rotate(0,185.5,239.5)"/><rect x="181" y="271" width="9" height="9" transform="rotate(0,185.5,275.5)"/><rect x="190" y="19" width="9" height="9" transform="rotate(0,194.5,23.5)"/><rect x="190" y="28" width="9" height="9" transform="rotate(0,194.5,32.5)"/><rect x="190" y="46" width="9" height="9" transform="rotate(0,194.5,50.5)"/><rect x="190" y="55" width="9" height="9" transform="rotate(0,194.5,59.5)"/><rect x="190" y="91" width="9" height="9" transform="rotate(0,194.5,95.5)"/><rect x="190" y="100" width="9" height="9" transform="rotate(0,194.5,104.5)"/><rect x="190" y="109" width="9" height="9" transform="rotate(0,194.5,113.5)"/><rect x="190" y="127" width="9" height="9" transform="rotate(0,194.5,131.5)"/><rect x="190" y="145" width="9" height="9" transform="rotate(0,194.5,149.5)"/><rect x="190" y="154" width="9" height="9" transform="rotate(0,194.5,158.5)"/><rect x="190" y="163" width="9" height="9" transform="rotate(0,194.5,167.5)"/><rect x="190" y="190" width="9" height="9" transform="rotate(0,194.5,194.5)"/><rect x="190" y="199" width="9" height="9" transform="rotate(0,194.5,203.5)"/><rect x="190" y="208" width="9" height="9" transform="rotate(0,194.5,212.5)"/><rect x="190" y="217" width="9" height="9" transform="rotate(0,194.5,221.5)"/><rect x="190" y="226" width="9" height="9" transform="rotate(0,194.5,230.5)"/><rect x="190" y="253" width="9" height="9" transform="rotate(0,194.5,257.5)"/><rect x="190" y="262" width="9" height="9" transform="rotate(0,194.5,266.5)"/><rect x="199" y="19" width="9" height="9" transform="rotate(0,203.5,23.5)"/><rect x="199" y="28" width="9" height="9" transform="rotate(0,203.5,32.5)"/><rect x="199" y="37" width="9" height="9" transform="rotate(0,203.5,41.5)"/><rect x="199" y="55" width="9" height="9" transform="rotate(0,203.5,59.5)"/><rect x="199" y="64" width="9" height="9" transform="rotate(0,203.5,68.5)"/><rect x="199" y="73" width="9" height="9" transform="rotate(0,203.5,77.5)"/><rect x="199" y="82" width="9" height="9" transform="rotate(0,203.5,86.5)"/><rect x="199" y="91" width="9" height="9" transform="rotate(0,203.5,95.5)"/><rect x="199" y="136" width="9" height="9" transform="rotate(0,203.5,140.5)"/><rect x="199" y="145" width="9" height="9" transform="rotate(0,203.5,149.5)"/><rect x="199" y="163" width="9" height="9" transform="rotate(0,203.5,167.5)"/><rect x="199" y="172" width="9" height="9" transform="rotate(0,203.5,176.5)"/><rect x="199" y="190" width="9" height="9" transform="rotate(0,203.5,194.5)"/><rect x="199" y="199" width="9" height="9" transform="rotate(0,203.5,203.5)"/><rect x="199" y="208" width="9" height="9" transform="rotate(0,203.5,212.5)"/><rect x="199" y="217" width="9" height="9" transform="rotate(0,203.5,221.5)"/><rect x="199" y="226" width="9" height="9" transform="rotate(0,203.5,230.5)"/><rect x="199" y="235" width="9" height="9" transform="rotate(0,203.5,239.5)"/><rect x="199" y="262" width="9" height="9" transform="rotate(0,203.5,266.5)"/><rect x="208" y="91" width="9" height="9" transform="rotate(0,212.5,95.5)"/><rect x="208" y="109" width="9" height="9" transform="rotate(0,212.5,113.5)"/><rect x="208" y="118" width="9" height="9" transform="rotate(0,212.5,122.5)"/><rect x="208" y="136" width="9" height="9" transform="rotate(0,212.5,140.5)"/><rect x="208" y="145" width="9" height="9" transform="rotate(0,212.5,149.5)"/><rect x="208" y="154" width="9" height="9" transform="rotate(0,212.5,158.5)"/><rect x="208" y="172" width="9" height="9" transform="rotate(0,212.5,176.5)"/><rect x="208" y="199" width="9" height="9" transform="rotate(0,212.5,203.5)"/><rect x="208" y="235" width="9" height="9" transform="rotate(0,212.5,239.5)"/><rect x="208" y="244" width="9" height="9" transform="rotate(0,212.5,248.5)"/><rect x="208" y="253" width="9" height="9" transform="rotate(0,212.5,257.5)"/><rect x="217" y="109" width="9" height="9" transform="rotate(0,221.5,113.5)"/><rect x="217" y="145" width="9" height="9" transform="rotate(0,221.5,149.5)"/><rect x="217" y="154" width="9" height="9" transform="rotate(0,221.5,158.5)"/><rect x="217" y="190" width="9" height="9" transform="rotate(0,221.5,194.5)"/><rect x="217" y="199" width="9" height="9" transform="rotate(0,221.5,203.5)"/><rect x="217" y="217" width="9" height="9" transform="rotate(0,221.5,221.5)"/><rect x="217" y="235" width="9" height="9" transform="rotate(0,221.5,239.5)"/><rect x="217" y="253" width="9" height="9" transform="rotate(0,221.5,257.5)"/><rect x="226" y="91" width="9" height="9" transform="rotate(0,230.5,95.5)"/><rect x="226" y="109" width="9" height="9" transform="rotate(0,230.5,113.5)"/><rect x="226" y="118" width="9" height="9" transform="rotate(0,230.5,122.5)"/><rect x="226" y="127" width="9" height="9" transform="rotate(0,230.5,131.5)"/><rect x="226" y="136" width="9" height="9" transform="rotate(0,230.5,140.5)"/><rect x="226" y="145" width="9" height="9" transform="rotate(0,230.5,149.5)"/><rect x="226" y="154" width="9" height="9" transform="rotate(0,230.5,158.5)"/><rect x="226" y="181" width="9" height="9" transform="rotate(0,230.5,185.5)"/><rect x="226" y="190" width="9" height="9" transform="rotate(0,230.5,194.5)"/><rect x="226" y="199" width="9" height="9" transform="rotate(0,230.5,203.5)"/><rect x="226" y="235" width="9" height="9" transform="rotate(0,230.5,239.5)"/><rect x="226" y="244" width="9" height="9" transform="rotate(0,230.5,248.5)"/><rect x="226" y="262" width="9" height="9" transform="rotate(0,230.5,266.5)"/><rect x="235" y="91" width="9" height="9" transform="rotate(0,239.5,95.5)"/><rect x="235" y="100" width="9" height="9" transform="rotate(0,239.5,104.5)"/><rect x="235" y="109" width="9" height="9" transform="rotate(0,239.5,113.5)"/><rect x="235" y="118" width="9" height="9" transform="rotate(0,239.5,122.5)"/><rect x="235" y="145" width="9" height="9" transform="rotate(0,239.5,149.5)"/><rect x="235" y="172" width="9" height="9" transform="rotate(0,239.5,176.5)"/><rect x="235" y="190" width="9" height="9" transform="rotate(0,239.5,194.5)"/><rect x="235" y="199" width="9" height="9" transform="rotate(0,239.5,203.5)"/><rect x="235" y="208" width="9" height="9" transform="rotate(0,239.5,212.5)"/><rect x="235" y="217" width="9" height="9" transform="rotate(0,239.5,221.5)"/><rect x="235" y="226" width="9" height="9" transform="rotate(0,239.5,230.5)"/><rect x="235" y="235" width="9" height="9" transform="rotate(0,239.5,239.5)"/><rect x="235" y="262" width="9" height="9" transform="rotate(0,239.5,266.5)"/><rect x="235" y="271" width="9" height="9" transform="rotate(0,239.5,275.5)"/><rect x="244" y="91" width="9" height="9" transform="rotate(0,248.5,95.5)"/><rect x="244" y="109" width="9" height="9" transform="rotate(0,248.5,113.5)"/><rect x="244" y="127" width="9" height="9" transform="rotate(0,248.5,131.5)"/><rect x="244" y="136" width="9" height="9" transform="rotate(0,248.5,140.5)"/><rect x="244" y="145" width="9" height="9" transform="rotate(0,248.5,149.5)"/><rect x="244" y="181" width="9" height="9" transform="rotate(0,248.5,185.5)"/><rect x="244" y="226" width="9" height="9" transform="rotate(0,248.5,230.5)"/><rect x="244" y="244" width="9" height="9" transform="rotate(0,248.5,248.5)"/><rect x="244" y="262" width="9" height="9" transform="rotate(0,248.5,266.5)"/><rect x="253" y="100" width="9" height="9" transform="rotate(0,257.5,104.5)"/><rect x="253" y="118" width="9" height="9" transform="rotate(0,257.5,122.5)"/><rect x="253" y="127" width="9" height="9" transform="rotate(0,257.5,131.5)"/><rect x="253" y="145" width="9" height="9" transform="rotate(0,257.5,149.5)"/><rect x="253" y="154" width="9" height="9" transform="rotate(0,257.5,158.5)"/><rect x="253" y="172" width="9" height="9" transform="rotate(0,257.5,176.5)"/><rect x="253" y="181" width="9" height="9" transform="rotate(0,257.5,185.5)"/><rect x="253" y="199" width="9" height="9" transform="rotate(0,257.5,203.5)"/><rect x="253" y="208" width="9" height="9" transform="rotate(0,257.5,212.5)"/><rect x="253" y="226" width="9" height="9" transform="rotate(0,257.5,230.5)"/><rect x="253" y="235" width="9" height="9" transform="rotate(0,257.5,239.5)"/><rect x="253" y="262" width="9" height="9" transform="rotate(0,257.5,266.5)"/><rect x="253" y="271" width="9" height="9" transform="rotate(0,257.5,275.5)"/><rect x="262" y="91" width="9" height="9" transform="rotate(0,266.5,95.5)"/><rect x="262" y="109" width="9" height="9" transform="rotate(0,266.5,113.5)"/><rect x="262" y="118" width="9" height="9" transform="rotate(0,266.5,122.5)"/><rect x="262" y="127" width="9" height="9" transform="rotate(0,266.5,131.5)"/><rect x="262" y="136" width="9" height="9" transform="rotate(0,266.5,140.5)"/><rect x="262" y="145" width="9" height="9" transform="rotate(0,266.5,149.5)"/><rect x="262" y="163" width="9" height="9" transform="rotate(0,266.5,167.5)"/><rect x="262" y="181" width="9" height="9" transform="rotate(0,266.5,185.5)"/><rect x="262" y="217" width="9" height="9" transform="rotate(0,266.5,221.5)"/><rect x="262" y="235" width="9" height="9" transform="rotate(0,266.5,239.5)"/><rect x="262" y="244" width="9" height="9" transform="rotate(0,266.5,248.5)"/><rect x="262" y="253" width="9" height="9" transform="rotate(0,266.5,257.5)"/><rect x="262" y="271" width="9" height="9" transform="rotate(0,266.5,275.5)"/><rect x="271" y="109" width="9" height="9" transform="rotate(0,275.5,113.5)"/><rect x="271" y="154" width="9" height="9" transform="rotate(0,275.5,158.5)"/><rect x="271" y="181" width="9" height="9" transform="rotate(0,275.5,185.5)"/><rect x="271" y="190" width="9" height="9" transform="rotate(0,275.5,194.5)"/><rect x="271" y="199" width="9" height="9" transform="rotate(0,275.5,203.5)"/><rect x="271" y="226" width="9" height="9" transform="rotate(0,275.5,230.5)"/><rect x="271" y="235" width="9" height="9" transform="rotate(0,275.5,239.5)"/></clipPath><clipPath id="clip-path-corners-square-color-0-0"><path clip-rule="evenodd" d="M 19 19v 63h 63v -63zM 28 28h 45v 45h -45z" transform="rotate(0,50.5,50.5)"/></clipPath><clipPath id="clip-path-corners-dot-color-0-0"><rect x="37" y="37" width="27" height="27" transform="rotate(0,50.5,50.5)"/></clipPath><clipPath id="clip-path-corners-square-color-1-0"><path clip-rule="evenodd" d="M 217 19v 63h 63v -63zM 226 28h 45v 45h -45z" transform="rotate(90,248.5,50.5)"/></clipPath><clipPath id="clip-path-corners-dot-color-1-0"><rect x="235" y="37" width="27" height="27" transform="rotate(90,248.5,50.5)"/></clipPath><clipPath id="clip-path-corners-square-color-0-1"><path clip-rule="evenodd" d="M 19 217v 63h 63v -63zM 28 226h 45v 45h -45z" transform="rotate(-90,50.5,248.5)"/></clipPath><clipPath id="clip-path-corners-dot-color-0-1"><rect x="37" y="235" width="27" height="27" transform="rotate(-90,50.5,248.5)"/></clipPath></defs><rect x="0" y="0" height="300" width="300" clip-path="url('#clip-path-background-color')" fill="#ffffff" style="transform: scale(1) translate(0px, 0px);"/><rect x="0" y="0" height="300" width="300" clip-path="url('#clip-path-dot-color')" fill="#000000" style="transform: scale(1) translate(0px, 0px);"/><rect x="19" y="19" height="63" width="63" clip-path="url('#clip-path-corners-square-color-0-0')" fill="#000000" style="transform: scale(1) translate(0px, 0px);"/><rect x="37" y="37" height="27" width="27" clip-path="url('#clip-path-corners-dot-color-0-0')" fill="#000000" style="transform: scale(1) translate(0px, 0px);"/><rect x="217" y="19" height="63" width="63" clip-path="url('#clip-path-corners-square-color-1-0')" fill="#000000" style="transform: scale(1) translate(0px, 0px);"/><rect x="235" y="37" height="27" width="27" clip-path="url('#clip-path-corners-dot-color-1-0')" fill="#000000" style="transform: scale(1) translate(0px, 0px);"/><rect x="19" y="217" height="63" width="63" clip-path="url('#clip-path-corners-square-color-0-1')" fill="#000000" style="transform: scale(1) translate(0px, 0px);"/><rect x="37" y="235" height="27" width="27" clip-path="url('#clip-path-corners-dot-color-0-1')" fill="#000000" style="transform: scale(1) translate(0px, 0px);"/></svg></svg></svg>